<svg xmlns="http://www.w3.org/2000/svg" width="2400" height="1398" viewBox="-1200 -699 2400 1398">
          <defs>
            <pattern id="bg" width="35.82089552238806" height="35.82089552238806" patternUnits="userSpaceOnUse" patternTransform="rotate(22.5)">
              <path d="
  M 5.970149253731343 0
  l 3.980099502487562 3.980099502487562
  l 15.920398009950247 0
  l 3.980099502487562 -3.980099502487562
  l 5.970149253731343 5.970149253731343
  l -3.980099502487562 3.980099502487562
  l 0 15.920398009950247
  l 3.980099502487562 3.980099502487562
  l -5.970149253731343 5.970149253731343
  l -3.980099502487562 -3.980099502487562
  l -15.920398009950247 0
  l -3.980099502487562 3.980099502487562
  l -5.970149253731343 -5.970149253731343
  l 3.980099502487562 -3.980099502487562
  l 0 -15.920398009950247
  l -3.980099502487562 -3.980099502487562
  z
  " stroke="#42474b" stroke-width="1" fill="none"/>
            </pattern>
            <pattern id="bg-large" width="358.2089552238806" height="358.2089552238806" patternUnits="userSpaceOnUse" patternTransform="rotate(-22.5)">
              <path d="
  M 59.701492537313435 0
  l 39.80099502487562 39.80099502487562
  l 159.20398009950247 0
  l 39.80099502487562 -39.80099502487562
  l 59.701492537313435 59.701492537313435
  l -39.80099502487562 39.80099502487562
  l 0 159.20398009950247
  l 39.80099502487562 39.80099502487562
  l -59.701492537313435 59.701492537313435
  l -39.80099502487562 -39.80099502487562
  l -159.20398009950247 0
  l -39.80099502487562 39.80099502487562
  l -59.701492537313435 -59.701492537313435
  l 39.80099502487562 -39.80099502487562
  l 0 -159.20398009950247
  l -39.80099502487562 -39.80099502487562
  z
  " stroke="#616668" stroke-width="2" fill="none"/>
            </pattern>
            <radialGradient id="accent-bg">
              <stop offset="25%" stop-color="#23292d"/>
              <stop offset="100%" stop-color="#23292d" stop-opacity="0"/>
            </radialGradient>
            <linearGradient id="fill-0" x1="0" y1="0" x2="1" y2="1"><stop offset="25%" stop-color="#ef4e7c" stop-opacity="0"/><stop offset="90%" stop-color="#ef4e7c"/></linearGradient>
<linearGradient id="fill-1" x1="0" y1="0" x2="1" y2="1"><stop offset="25%" stop-color="#f37055" stop-opacity="0"/><stop offset="90%" stop-color="#f37055"/></linearGradient>
<linearGradient id="fill-2" x1="0" y1="0" x2="1" y2="1"><stop offset="25%" stop-color="#f79532" stop-opacity="0"/><stop offset="90%" stop-color="#f79532"/></linearGradient>
<linearGradient id="fill-3" x1="0" y1="0" x2="1" y2="1"><stop offset="25%" stop-color="#6ebb82" stop-opacity="0"/><stop offset="90%" stop-color="#6ebb82"/></linearGradient>
<linearGradient id="fill-4" x1="0" y1="0" x2="1" y2="1"><stop offset="25%" stop-color="#09b399" stop-opacity="0"/><stop offset="90%" stop-color="#09b399"/></linearGradient>
<linearGradient id="fill-5" x1="0" y1="0" x2="1" y2="1"><stop offset="25%" stop-color="#1299ad" stop-opacity="0"/><stop offset="90%" stop-color="#1299ad"/></linearGradient>
<linearGradient id="fill-6" x1="0" y1="0" x2="1" y2="1"><stop offset="25%" stop-color="#5073b8" stop-opacity="0"/><stop offset="90%" stop-color="#5073b8"/></linearGradient>
<linearGradient id="fill-7" x1="0" y1="0" x2="1" y2="1"><stop offset="25%" stop-color="#a067ab" stop-opacity="0"/><stop offset="90%" stop-color="#a067ab"/></linearGradient>
          </defs>
          <rect x="-1200" y="-699" width="2400" height="1398" fill="#23292d" />
          <rect x="-1200" y="-699" width="2400" height="1398" fill="url(#bg)"/>
          <rect x="-1200" y="-699" width="2400" height="1398" fill="url(#bg-large)"/>
          <circle r="1200" fill="url(#accent-bg)"/>
          <path d="M 0 -300 L 212.13 -212.13 L 212.13 212.13 Z" stroke="#ef4e7c" stroke-width="0" fill="url(#fill-0)" transform="rotate(0)"/>
<path d="M 0 -300 L 212.13 -212.13 L 212.13 212.13 Z" stroke="#f37055" stroke-width="0" fill="url(#fill-1)" transform="rotate(-45)"/>
<path d="M 0 -300 L 212.13 -212.13 L 212.13 212.13 Z" stroke="#f79532" stroke-width="0" fill="url(#fill-2)" transform="rotate(-90)"/>
<path d="M 0 -300 L 212.13 -212.13 L 212.13 212.13 Z" stroke="#6ebb82" stroke-width="0" fill="url(#fill-3)" transform="rotate(-135)"/>
<path d="M 0 -300 L 212.13 -212.13 L 212.13 212.13 Z" stroke="#09b399" stroke-width="0" fill="url(#fill-4)" transform="rotate(-180)"/>
<path d="M 0 -300 L 212.13 -212.13 L 212.13 212.13 Z" stroke="#1299ad" stroke-width="0" fill="url(#fill-5)" transform="rotate(-225)"/>
<path d="M 0 -300 L 212.13 -212.13 L 212.13 212.13 Z" stroke="#5073b8" stroke-width="0" fill="url(#fill-6)" transform="rotate(-270)"/>
<path d="M 0 -300 L 212.13 -212.13 L 212.13 212.13 Z" stroke="#a067ab" stroke-width="0" fill="url(#fill-7)" transform="rotate(-315)"/>
        </svg>